<svg id="Lines" xmlns="http://www.w3.org/2000/svg" viewBox="0 0 2200 2200"><defs><style>.cls-1{fill:#fff;}.cls-2{fill:none;stroke:#fff;stroke-linecap:round;stroke-miterlimit:10;stroke-width:50px;}</style></defs><title>Artboard 1</title><path class="cls-1" d="M2014.6,1257.92c-107.85-72.76-307.45-55.61-429.07-48.54-165.68,9.63-315.82,99.4-481.68,99.31-150.36-.08-285-79.37-432.53-95.08-131.55-14-309.57-26.17-437,21.66-79,29.67-117.31,72.14-94.39,160.38,16.5,63.52,42.93,144.6,69.92,204.27,80.59,178.22,302.43,194.22,472.66,175.71,73.77-8,168.75-22.9,226.27-74.05,75-66.73,73.91-174.15,127.09-247.84,51.4-71.21,119.08-25.65,142.7,37.46,30.07,80.33,70.34,189.4,149.13,234.1,150.54,85.41,427.07,87,571.59-10.86,97.42-66,97.61-161.78,136.95-260.73,30-75.35,58.13-142-21.67-195.79Zm-1147,436.87c-126.24,92.37-440.41,95.94-558.83-16.21-83.37-79-151.42-316.76-24.83-375.1,156.24-72,384.44-56.26,540.63,1.64,59.23,22,116.63,54,138.19,117.78C993.3,1513.3,942.89,1639.7,867.6,1694.79Zm1097-152c-67.3,201.9-248,228.33-443,203.93-93.76-11.74-183.29-28.07-238.39-110.53-52.91-79.18-78.14-197.51-6-272.86,111.71-116.66,349.7-111.72,492.91-95.67,57.33,6.42,160.7,18,199.32,66.48C2011.79,1387.29,1983.6,1485.76,1964.6,1542.79Z"/><path class="cls-2" d="M1202.18,1174.89s118.49,3,241.49-105,174-156,327-93"/><path class="cls-1" d="M616,411.35c-14.67.69-26.15,9.15-34,22.53L533.93,530c-9.75-2.94-20.37-.17-30.21,7.08l-32.8,24.17c-9.84,7.25-15.62,16.57-15.71,26.76L349.13,605.46c-13.47,2.33-26.59,12-31.59,25.81-3.37,12.6-2.68,27.28,5.78,38.76l72.5,98.4c8.46,11.48,22.27,16.49,35.3,17,9-1.55,15.11-3.54,21.67-8.37,4.92-3.62,8.63-8.89,12.34-14.15l48.08-96.15c9.75,2.94,20.37.17,30.21-7.08l32.8-24.17c9.84-7.25,15.62-16.57,15.71-26.76L698,591.32c6.13-2,12.26-4,17.18-7.59,6.56-4.83,10.27-10.1,14.42-18.21,5-13.81,2.68-27.28-5.78-38.76l-72.5-98.4C642.86,416.87,629.05,411.87,616,411.35Zm-187.4,332.9-72.5-98.4,113.42-17.78,9.67,13.12Zm90.64-117.38-24.17-32.8,32.8-24.17,24.17,32.8ZM577.6,568.7l-9.67-13.12,50.58-103.06,72.5,98.4Z"/><path class="cls-1" d="M197.32,942.26,242.82,963a878.36,878.36,0,0,1,86.56-146.73l-34.9-36.92A927.73,927.73,0,0,0,197.32,942.26Z"/><path class="cls-1" d="M770.38,448.11l23.82,45.27a828.75,828.75,0,0,1,201.88-28.86l-.19-50A878,878,0,0,0,770.38,448.11Z"/></svg>