<svg xmlns="http://www.w3.org/2000/svg" viewBox="0 0 2200 2200"><defs><style>.cls-1{fill:#fff;}</style></defs><title>ro</title><g id="Glasses"><path class="cls-1" d="M826.15,168.88c-8.66,1.47-14.87,7.32-18.57,15.83L786,245.27c-6-1-12.11,1.37-17.43,6.38l-17.73,16.72c-5.32,5-8.08,11-7.4,17l-61.73,18c-7.83,2.36-14.92,9-16.89,17.6-1.09,7.73.38,16.39,6.23,22.59l50.15,53.19C727,403,735.6,405,743.37,404.33c5.22-1.57,8.71-3.19,12.26-6.53,2.66-2.51,4.48-5.9,6.31-9.3l21.61-60.56c6,1,12.11-1.37,17.43-6.38l17.73-16.72c5.32-5,8.08-11,7.4-17l61.73-18c3.5-1.62,7-3.24,9.65-5.75,3.55-3.34,5.37-6.74,7.24-11.85a23.94,23.94,0,0,0-6.23-22.59l-50.15-53.19C842.49,170.22,833.92,168.24,826.15,168.88ZM738.91,380.06l-50.15-53.19,66.06-18.74,6.69,7.09Zm45.34-76.24L767.54,286.1l17.73-16.72L802,287.11Zm30.45-38.75L808,258l22.59-64.84,50.15,53.19Z"/><path class="cls-1" d="M1221.67,1060.29s-.38.78-1.22,2.17c-.42.7-.95,1.55-1.6,2.52s-1.42,2.1-2.32,3.31a105.5,105.5,0,0,1-6.95,8.41,124,124,0,0,1-10.17,9.89c-.49.43-1,.86-1.5,1.29l-1.56,1.28c-1,.88-2.14,1.71-3.25,2.58s-2.27,1.72-3.46,2.56c-.59.42-1.19.86-1.8,1.28l-1.86,1.25a138.72,138.72,0,0,1-16.48,9.43,136.46,136.46,0,0,1-19.05,7.5c-1.67.52-3.36,1-5.07,1.45-.85.22-1.71.47-2.57.67l-2.6.6c-.86.21-1.74.38-2.61.56l-2.63.52-2.64.44c-.88.14-1.76.3-2.65.41a133.77,133.77,0,0,1-21.31,1.26,125.85,125.85,0,0,1-39-7.15,128.72,128.72,0,0,1-15.57-6.76c-2.31-1.25-4.51-2.41-6.53-3.67-1-.62-2-1.21-2.95-1.81s-1.85-1.22-2.72-1.82c-1.76-1.16-3.34-2.35-4.79-3.45-.73-.55-1.42-1.07-2.07-1.59s-1.26-1-1.84-1.52c-2.32-1.92-4-3.56-5.2-4.7s-1.75-1.76-1.75-1.76.86.16,2.43.51c.79.17,1.75.39,2.87.67.56.14,1.17.26,1.81.41l2,.46,2.25.53,2.48.55,2.66.6c.46.11.93.21,1.41.3l1.45.31c1,.2,2,.43,3,.65l3.2.63c2.17.47,4.48.83,6.84,1.29,4.76.81,9.86,1.6,15.23,2.24s11,1.09,16.77,1.33,11.72.24,17.72,0,12.06-.85,18.1-1.7,12-2,17.93-3.34c2.94-.69,5.86-1.41,8.73-2.22l2.15-.59,2.13-.63c1.42-.4,2.82-.85,4.22-1.27,5.56-1.77,10.95-3.63,16-5.59,2.55-1,5-2,7.41-2.93s4.71-2,6.92-2.93c4.45-1.92,8.51-3.82,12.14-5.53s6.79-3.29,9.41-4.61l3.52-1.77,2.61-1.35Z"/><path class="cls-1" d="M1215.51,168.07c-18.76-10.05-39.67-15.36-60-21.25-45.21-12.72-93.17-14.11-139.33-6.12q-9.39,1.84-18.7,4c-2.67.62-5.29,1.4-7.89,2.27-1.41.81-4.16,2.16-12.3,5-4.15,1.89-8.3,3.8-12.48,5.63-6.37,2.79-12.7,5.4-19.13,7.57-10.81,7-19,15.15-23,22.53,25.32-15.67,54.58-23.33,84.49-26.93a146.48,146.48,0,0,1,30-4.74c16.56-.95,34-.14,50.15,3.46l1.54.36A495,495,0,0,1,1182.91,171c11.15,1.93,22.16,5.65,33.56,5.5C1222.14,175.62,1219.16,169.41,1215.51,168.07Z"/><path class="cls-1" d="M1245.74,184.85c81.5,33.17,163.6,67.26,236.12,117.87,39.75,28,75.06,62.83,101.65,103.7,25.78,39.92,39,86.17,50.34,131.86,11,44,15.07,89.79,10.52,135-5.31,51.61-15.29,103.39-36.86,150.86-12.84,29.91-28.91,58.46-40.8,88.74,5.63,29.72,22.67,55.69,39.21,80.49a602.45,602.45,0,0,0,87.68,100.26c34.71,32.46,73.23,60.41,109.13,91.45,26.61,22.58,50.87,49.33,64.18,82,15.46,35.64,14.77,76.73,2.35,113.15-25.76,76.14-71.81,144.23-91.55,222.62-11.89,42.61-15.31,88.05-6.14,131.54a199.82,199.82,0,0,0,49.6,92.72c37.59,39,87.22,65.28,139.46,78.54a28,28,0,0,1,10.37,5c-17.46,2.91-35-3.89-51.44-9-60.12-20.52-115.74-60.49-146.12-117.28-20.45-39.21-28-84.31-24.68-128.19,2.37-40.58,13-80.22,26.81-118.28,15.56-43.17,37.2-83.77,55.37-125.84,13.72-31.67,27-65.72,22.7-100.92-4.28-38.55-25.61-73-52.44-100.13-32.68-32.73-69.46-61-102.68-93.16a658.49,658.49,0,0,1-84.21-96.46c-21.6-31.33-43.15-64.35-51.12-102.11-21.25,48.16-36.66,98.69-48.4,150-4.16,15.63-6.58,31.75-11.64,47.11-.9,1.05-2.69,3.16-3.57,4.21,2.13-33.07,10.25-65.48,17.41-97.76-3,4.55-4.6,12.77-11.57,12.06,2.42-14,8.68-26.78,13.23-40.11,16.66-46.57,30.84-96.12,24.68-146.07-5.55-42.8-31.53-79.17-58.6-111.34.27,14.41,1.1,29.08-2.2,43.24-1.61,34.63-8.07,68.78-13.35,102.95-2.32,6.58-2.81,13.62-4.72,20.33-4.3,17-9.59,33.85-15,50.6-2.93,7.17-5.14,14.58-7.46,22-4.35,11.42-7.88,23.19-13.16,34.24-1.81,5.55-3.35,11.45-1.54,17.27,8.34,37.54,27.69,71.93,51.51,101.82,49,60.46,118,99.06,177.15,148.24,34.12,28.62,65.82,61,88.74,99.47,24.46,41.78,26,92.89,17.15,139.41-1.57,4.55-1.39,11.74-6.95,13.31-4.26-1.69-2.71-7.44-3.18-11,1.35-33.95,1.54-69-10.44-101.28-11.79-30.45-33.8-55.35-55.72-79-27.71-29.74-59.68-55-92.38-79-42.34-32-84.55-65.45-117.45-107.52-28.37-37.05-50.31-80.69-55.3-127.55a49.49,49.49,0,0,1-6.43,19c-.42,1.35-1.25,4.06-1.66,5.43-2.69,2.69-4.13,6.24-5.63,9.69-13.65,28.79-32.29,54.84-52.1,79.66-31.85,41.6-70.73,78-115.62,105.25l-6.11.9c-2.3,11.42.15,23,1.61,34.39.37,25.66,4.45,52.12,17.27,74.75,14.87,28,39,49.38,63.89,68.34,47,35,98.94,62.54,147.73,94.83,28.91,19.81,60.19,39.45,78.19,70.56,13.6,23,14.75,53.22.71,76.31-4,4.38.2,9.07,2,13.35l-9.32-.81c-15.36,19.64-31.31,38.84-45.4,59.43-16.61,24.24-30.74,51.71-31.33,81.72-.24,34.32,12.23,67.09,26.49,97.79-4.4-39.21,8.17-78.56,28.42-111.85,22.62-36,50.65-68.09,79-99.64,22-25.34,45.52-49.8,62.93-78.71,16.93-28.84,27.88-62.81,22.72-96.49-4.74-29-21.47-54.15-39.87-76.36-34.51-40.77-78.37-71.83-119.24-105.71-32.9-27.81-65.28-56.94-91.06-91.67-14.82-20.3-27.27-43.17-31.09-68.31-1.35-10.59-1.88-21.23-3-31.82,2.79,16.56,4.43,33.53,11,49.21,11.37,28.57,31.75,52.34,52.88,74.21,36.32,36.1,77.46,66.77,118.7,97,33.73,25.24,66.63,52.44,92.43,86,18.25,23.75,32.55,52,33.85,82.43,1.71,37.13-12.52,73.16-32.65,103.73-13.82,20.86-30.55,39.57-46.86,58.48,5,29.47,22,55.3,41,77.8a251,251,0,0,0,91.08,65.65c37.94,17.22,78.12,28.57,116.52,44.61,33.29,13.7,65.45,32.26,89.57,59.46,4.48,6,11.81,12.77,9.34,21.06-6.24,1.86-10.57-4.4-15.07-7.53-44.66-39.26-103.41-54.57-157.93-74.72-35.47-12.89-71.52-26.56-101.38-50.29-31.6-25.29-58.21-58-72.23-96.29-4.21-10.84-6-22.4-6.46-33.95-25.22,29.59-52.07,57.87-74.7,89.59-22.48,29.33-39.18,64.62-40.19,102.11-1,30.33,6.92,62.37,27.47,85.46,14.36,17.44,34.68,28.67,55.11,37.59,35.59,14.63,73.45,22.72,111.34,28.67,12.2,2.57,25.31,2,36.64,7.83-18.69,3.2-37.54-.86-56.21-2.54-27.27-4.28-54.69-8.78-80.86-17.88-32.43-9.91-64.67-26.22-85.24-54.08-11.81-13.72-16.56-31.4-23.21-47.82-22.31-38.45-42.88-80.35-43.73-125.72-.27-36.74,17-70.54,36.66-100.53,10.13-16.63,22.94-31.48,32.46-48.48a75,75,0,0,1-8.83-3c-43.51-21-85.87-44.25-127.75-68.29-25.17-14.19-50-29.23-76.53-40.75-6.36-2.86-13-5-19.57-7.36-8-2.59-16-5.36-24.29-7.26-12.16-3.45-23.68-11.32-26.71-24.29-4.79-23.19-7.51-46.72-10.3-70.22a64.39,64.39,0,0,0-2.37-9.39c-.83-7.29-.78-14.58-1.25-21.87-4.72-20.57-1.08-42.17-3.94-63.05-.51-30.92-.73-61.83,1.66-92.65-11.64,2.74-22.21,8.71-34.07,10.66.15-1,.42-2.86.56-3.82,28.37-14.48,55.62-31.7,78.83-53.71,10.27-10.15,20.55-20.3,30.5-30.77a520.76,520.76,0,0,0,70.37-108.11c7.07-15.63,14.87-30.92,22.11-46.47,29-61.9,46.52-128.33,65.45-193.74,3.6-19.2,9.83-37.81,12.25-57.23,4.65-17.78,5.23-36.52,10.13-54.1a37.17,37.17,0,0,0-7.26-11.45C1407,647.38,1344.41,592.28,1296.2,524.84c-24.58-34.51-40.87-75.72-42.17-118.36,0-15.58,1.37-33.14,12.84-44.93-9.83,30.77-2.45,63.76,8.9,93,14.26,37.23,40.75,67.87,67.7,96.54,42.39,45.13,87.56,87.56,128.82,133.76.22-10.52,2.27-20.89,2.2-31.38.32-5.65-.61-11.67,2-16.9.56-16,.68-32,1-48l7.29-.78c-.66,12.23,2.67,24.21,2.4,36.44.59,23.63.46,47.28.42,70.91-.34,4.72,1.93,9,4.87,12.6,23.33,28.35,46.67,57.75,60.31,92.21,11,28.25,12.47,59.24,9.2,89.15,18.27-43.32,39.6-85.95,48.62-132.44,12-60,16.66-122.32,5.77-182.83a634.64,634.64,0,0,0-30.23-109c-18.93-48.5-50-91.79-88.15-127-29.62-27.54-63.74-49.68-98.3-70.47-37.94-22.55-77.56-42-117.23-61.29-12.55-6.51-26-11.84-36.71-21.25m10.37,1256.71c.68,14,5.28,27.54,5.67,41.6.86,8.41,2.81,16.68,4.6,24.95,7.73,4,15.58,7.66,23.21,11.81,20.81,10,40.38,22.21,59.8,34.61,35.93,23.72,72.32,46.76,109.35,68.73,19.32,12.35,40.33,22,59.21,35,8.93-13,13.21-29.86,8.27-45.18-6-20.06-21.57-35-37.13-48.13-58.95-47.87-125.57-85.34-183.66-134.3-29.06-24.95-56.6-55.13-65.89-93.31C1243.44,1372.29,1248.78,1407.17,1256.11,1441.55Z"/><path class="cls-1" d="M741.46,811.65c-.17-8.81-3.13-17.17-4-25.88-4.55-18-6.09-36.59-9.29-54.86-2.4-6.95-1.37-14.38-2.25-21.55-3.2-15.75-2.89-31.94-5.31-47.82l-1.91-2.32c-.49-2.08-1-4.13-1.47-6.19-1,22.16-1.42,44.51,1.39,66.55-.68,35.2,6.95,69.85,8.27,104.9-26.24,26.12-48.06,57.6-58.24,93.53-1.39,2.91-1.15,10.57-6.14,7.66l3.3-1.32c-6.5-109.89-10.27-220.88,3.49-330.31.1-26.6.58-53.21,2.78-79.7,2.39-28.79,6.26-57.74,13.85-85.66A577.45,577.45,0,0,0,657.12,522C637,617.32,633.69,715.52,639.66,812.53c3.16,42.61,6.95,85.24,14.31,127.38,1.27,9.37,6.58,17.46,8.9,26.54,4.67-7.29,6.46-15.82,9.22-23.9,3.67-11.23,8.76-21.91,12.87-33,1.83,49.38,18.64,96.71,38.94,141.25,20,43.41,49.7,81.45,81.4,116.89,14,15.38,29.57,29.64,47.57,40.23,8.73,5,18.59,9.1,28.84,8,4.26-.78,11.1-1.49,10.17-7.44-6.75-4.33-14.8-6.07-21.28-10.81-11.81-8.46-22.18-18.71-32.26-29.11-34.54-37.79-66.85-77.88-93.36-121.76-23.14-39.13-41.43-81.25-52.66-125.35-1.25-7-6.58-14.82-2.1-21.65a207.65,207.65,0,0,1,43.29-55c.07,4.72-.07,9.49.86,14.16,4.65,17.85,7.56,36.1,12.11,54,2.74,9.64,4.75,19.49,7.46,29.13,11.35,37.35,23.85,74.53,39.92,110.14,13.26,34.07,31.48,66.06,52.83,95.68,27.3,39,61.07,73.89,100.7,100.48,11.1,6.46,21.18,14.94,33.51,19a128.25,128.25,0,0,1-.76,14.68c-.9,1.79-1.76,3.6-2.59,5.41-2.27,12.72-.61,25.78-3.47,38.42-1.17,16.22-.56,32.55-1.15,48.79-3.15,24.48-.88,49.28-4.06,73.77,1,14.94-2.67,29.4-3.3,44.22-6,9.66-15.07,16.68-24.34,22.94-23.38,14.43-47.69,27.25-71.52,40.92q-58.15,33.86-114,71.59c-15.73,11.35-32.55,21.25-47,34.24-.17,1.83-.49,5.5-.66,7.31a30.75,30.75,0,0,0,15.38-4.28c42.39-22.77,83.48-47.87,126.3-69.8,4.87-2.64,9.86-5,14.94-7.24,14.11-7.83,29.15-13.72,43.68-20.67,5-2.18,10-4.21,15.09-6.21,23.53-11.35,50.85-18.88,67.82-40.09,15.38-19.15,14.48-45.18,12.89-68.31-2-13.79-.81-27.79-2.54-41.56-3.35-15.83-.81-32.14-2.76-48.11-3.91-16.24-3-33-4.21-49.55-3-13.09-2.49-26.56-2.4-39.89,37.69,17.12,80.05,22.09,121,18.25,10.4-3.28,21.45-4.48,32-7.41,8-3.35,16.44-5.92,23.75-10.74-.39-2.37-.78-4.72-1.13-7-21.47-1.27-42.61,6-64.11,3.4-20.62-3.13-41.51-6-61.17-13.26-21.62-7.78-42-18.71-61-31.53-40.77-24.39-74.62-59-102.65-97.05-26.1-36.83-51.66-74.48-70.27-115.76-15.56-32.41-28-66.19-40-100-5.31-20.33-12-40.28-16.63-60.83a80,80,0,0,1-4.21-19.74"/><path class="cls-1" d="M1221.67,359.68l-1.6,2.38c-1.07,1.56-2.64,3.88-4.8,6.84-4.31,5.91-10.66,14.57-19.29,25.18s-19.38,23.28-32.32,37.3-28.07,29.38-45.29,45.42-36.61,32.68-58,49.25a821.7,821.7,0,0,1-69.88,48.67c-3.15,1.95-6.26,4-9.47,5.88l-9.69,5.69L961.56,592l-10,5.45-10.08,5.48c-3.4,1.78-6.85,3.48-10.29,5.23l-10.38,5.19c-1.73.89-3.49,1.7-5.26,2.51l-5.31,2.44c-7.1,3.22-14.14,6.64-21.43,9.58l-10.88,4.57-5.46,2.26c-1.84.72-3.69,1.39-5.54,2.09L855.8,640.9,850.24,643c-.93.34-1.85.7-2.79,1l-2.82.94c-7.53,2.49-15,5-22.6,7.49L799.13,659c-1.9.57-3.83,1-5.76,1.49l-5.78,1.41L776,664.68,770.48,666l-5.64,1.33-5.64,1.31c-1.88.43-3.58.91-5.37,1.36-3.55.93-7.08,1.78-10.64,2.86s-7.13,2-10.6,3.17-7,2.19-10.41,3.47-6.87,2.41-10.19,3.79l-5,2c-1.68.66-3.29,1.41-4.93,2.11l-4.9,2.14-4.78,2.3c-3.22,1.47-6.26,3.19-9.35,4.82-1.56.79-3,1.72-4.52,2.58s-3,1.73-4.45,2.64l-4.3,2.8c-.71.47-1.45.91-2.14,1.4l-2.06,1.47c-1.37,1-2.77,1.94-4.11,2.94l-3.93,3.1A123.12,123.12,0,0,0,643.17,727a111.25,111.25,0,0,0-11.59,15.1,105.17,105.17,0,0,0-8.6,16.5,123.78,123.78,0,0,0-5.52,17.49,130.05,130.05,0,0,0-2.76,18,160.76,160.76,0,0,0-.43,17.94c.12,5.94.69,11.81,1.34,17.58s1.66,11.43,2.69,17c4.31,22.21,10.77,42.37,16.92,60.13s12.16,33.19,16.8,46,8,23.09,9.93,30.16c1,3.53,1.58,6.28,2,8.14l.55,2.81-1-2.68c-.66-1.77-1.72-4.35-3.15-7.69s-3.31-7.41-5.66-12.13-5.08-10.13-8.18-16.18c-6.2-12.1-13.9-26.75-22-44.07-4.06-8.65-8.15-18-12.15-28.06a339,339,0,0,1-11-32.46,226.62,226.62,0,0,1-7.17-37.2,158.67,158.67,0,0,1,1.08-41.58,134.28,134.28,0,0,1,5.51-21.53,129.48,129.48,0,0,1,9.54-20.87c1-1.67,1.94-3.37,3-5l3.24-4.88c1.08-1.63,2.33-3.14,3.49-4.72l1.78-2.35,1.9-2.25a149.2,149.2,0,0,1,16.56-16.9l4.52-3.86c1.54-1.24,3.12-2.43,4.68-3.65l2.36-1.82c.79-.6,1.61-1.15,2.42-1.72l4.89-3.39c1.65-1.1,3.34-2.12,5-3.19s3.35-2.15,5.08-3.1c3.45-1.94,6.87-4,10.42-5.75l5.3-2.73,5.38-2.54c1.8-.83,3.59-1.72,5.41-2.5l5.48-2.33c3.65-1.59,7.38-2.93,11.09-4.35s7.48-2.66,11.24-4,7.57-2.42,11.37-3.61,7.69-2.24,11.58-3.32c1.93-.52,3.93-1.11,5.81-1.58l5.62-1.38,5.63-1.36,5.71-1.42,11-2.75,5.52-1.37c1.84-.46,3.69-.89,5.5-1.45l21.88-6.37,21.69-7,2.71-.88c.9-.31,1.78-.65,2.68-1l5.35-2L856.31,609c1.78-.66,3.56-1.29,5.33-2l5.26-2.14,10.53-4.21c7.05-2.69,13.89-5.88,20.77-8.86l5.15-2.26c1.72-.74,3.43-1.5,5.11-2.33l10.1-4.81c3.36-1.59,6.74-3.14,10.07-4.76l9.88-5,9.83-5,9.63-5.22,9.57-5.17c3.19-1.71,6.27-3.56,9.4-5.33,24.92-14.22,48.42-29.1,70.18-44,5.41-3.79,10.81-7.43,16-11.19l15.34-11.15,14.67-11,14-10.87c18.14-14.34,34.36-28.06,48.5-40.53s26.18-23.71,36-33.11,17.35-17,22.39-22.23l5.76-6Z"/><path class="cls-1" d="M1463.78,674.05c-42.9-28.94-122.29-22.12-170.67-19.31-65.9,3.83-125.62,39.54-191.59,39.5-59.81,0-113.38-31.57-172-37.82C877.17,650.86,806.36,646,755.68,665c-31.43,11.8-46.66,28.7-37.54,63.79,6.56,25.27,17.08,57.51,27.81,81.25C778,881,866.24,887.34,933.95,880c29.34-3.19,67.12-9.11,90-29.45,29.85-26.54,29.4-69.27,50.55-98.58,20.44-28.32,47.36-10.2,56.76,14.9,12,32,28,75.34,59.32,93.11,59.88,34,169.87,34.61,227.35-4.32,38.75-26.25,38.83-64.35,54.47-103.71,11.91-30,23.12-56.46-8.62-77.88ZM1007.56,847.82c-50.21,36.74-175.17,38.16-222.28-6.45-33.16-31.4-60.23-126-9.87-149.2,62.15-28.64,152.91-22.38,215,.65,23.56,8.73,46.39,21.48,55,46.85C1057.56,775.63,1037.51,825.91,1007.56,847.82Zm436.33-60.46c-26.77,80.31-98.66,90.82-176.2,81.11-37.29-4.67-72.9-11.17-94.82-44-21-31.49-31.08-78.56-2.38-108.53,44.43-46.4,139.09-44.44,196.06-38.05,22.8,2.56,63.92,7.16,79.28,26.44C1462.67,725.51,1451.46,764.68,1443.9,787.36Z"/></g></svg>